<!DOCTYPE svg PUBLIC "-//W3C//DTD SVG 1.1//EN" "http://www.w3.org/Graphics/SVG/1.1/DTD/svg11.dtd">
<!-- Uploaded to: SVG Repo, www.svgrepo.com, Transformed by: SVG Repo Mixer Tools -->
<svg width="800px" height="800px" viewBox="-5.25 -5.25 35.50 35.50" xmlns="http://www.w3.org/2000/svg" fill="#ffffff" stroke="#ffffff">
<g id="SVGRepo_bgCarrier" stroke-width="0">
<path transform="translate(-5.25, -5.25), scale(1.109375)" d="M16,28.149975045451097C17.740780869950697,27.767346721566096,19.64674414408367,28.572624920177734,21.28066121565685,27.860559280895032C22.91624110532576,27.147768980825717,23.733186866887998,25.342438228469714,25.09288488689276,24.18727032649295C26.649163434208027,22.865092167854957,28.874068119642796,22.27727283560139,29.918207957643844,20.52229990170406C30.980692270000535,18.73649387935532,31.592642380740944,16.39194716758811,30.89544361457886,14.434425789946687C30.174044186720124,12.408956339354646,27.208658403250375,12.009446641762114,26.208366401438937,10.106196910142902C25.150374016455608,8.093160997501192,26.506234534737402,5.249829498184548,25.12057144916649,3.446610353001672C23.801980816750856,1.7306752907271172,21.356655135551815,0.9256613635720323,19.19321608695896,0.9770994512219353C17.03010054471757,1.028529847160776,15.388485591966054,2.8938341604977658,13.390973240747586,3.72549415198608C11.73305295031792,4.415765715907057,9.911238015132316,4.578979616398091,8.361697774822497,5.486778914170948C6.735151973043097,6.439691977180847,5.232584883603554,7.6172886250783955,4.13360202697322,9.148931935961752C2.9901141283911494,10.7426015554401,2.3500458626075176,12.611208173754772,1.882895160706358,14.51623249170065C1.377611988734786,16.57675969659895,0.5588427547730428,18.787599064206045,1.2808003750578898,20.782557870927697C2.0038818783716725,22.7806222620816,4.372578543101591,23.610840596371556,5.757391801021786,25.22248584651819C7.176082413986765,26.873557552205448,7.480615367628419,29.835564941797386,9.573663100104568,30.433788998662724C11.783644666886973,31.0654344781063,13.755112670781676,28.643407326858128,16,28.149975045451097" fill="#ff3d3d" strokewidth="0"/>
</g>
<g id="SVGRepo_tracerCarrier" stroke-linecap="round" stroke-linejoin="round"/>
<g id="SVGRepo_iconCarrier"> <g id="device-24px" transform="translate(0.498 0.5)"> <rect id="Retângulo_223" data-name="Retângulo 223" width="24" height="24" fill="none" opacity="0"/> <path id="Icone" d="M19123,16743v-3h-2v3a1,1,0,1,1-2,0v-3h-2v3a1,1,0,1,1-2,0v-3h-2a1,1,0,0,1-1-1v-2h-3a1,1,0,0,1,0-2h3v-2h-3a1,1,0,0,1,0-2h3v-2h-3a1,1,0,0,1,0-2h3v-2a1,1,0,0,1,1-1h2v-3a1,1,0,0,1,2,0v3h2v-3a1,1,0,0,1,2,0v3h2v-3a1,1,0,0,1,2,0v3h2a1,1,0,0,1,1,1v2h3a1,1,0,1,1,0,2h-3v2h3a1,1,0,1,1,0,2h-3v2h3a1,1,0,1,1,0,2h-3v2a1,1,0,0,1-1,1h-2v3a1,1,0,1,1-2,0Zm-9-5h12v-12h-12Zm3-2a1,1,0,0,1-1-1v-6a1,1,0,0,1,1-1h6a1,1,0,0,1,1,1v6a1,1,0,0,1-1,1Zm1-2h4v-4h-4Z" transform="translate(-19108 -16720)" stroke="rgba(0,0,0,0)" stroke-miterlimit="10" stroke-width="0.00025002"/> </g> </g>
</svg>